<?xml version="1.0" encoding="UTF-8" standalone="no"?>
<svg width="24px" height="24px" viewBox="0 0 24 24" version="1.1" xmlns="http://www.w3.org/2000/svg" xmlns:xlink="http://www.w3.org/1999/xlink">
    <!-- Generator: sketchtool 3.8.3 (29802) - http://www.bohemiancoding.com/sketch -->
    <title>13234655-2BD6-403D-944C-0F0CFD5154A8</title>
    <desc>Created with sketchtool.</desc>
    <defs></defs>
    <g id="Desktop" stroke="none" stroke-width="1" fill="none" fill-rule="evenodd">
        <g id="Landing" transform="translate(-280.000000, -328.000000)" fill="#FD6250">
            <g id="banner" transform="translate(0.000000, 81.000000)">
                <g id="buscador" transform="translate(250.000000, 229.000000)">
                    <g id="direccion" transform="translate(30.000000, 18.000000)">
                        <g id="Group-2" transform="translate(5.000000, 1.000000)">
                            <g id="map-pin">
                                <path d="M2.79176471,6.9195 C2.78242483,5.33760395 3.74705261,3.90644582 5.23467934,3.29509979 C6.72230607,2.68375376 8.4390278,3.01300079 9.58226783,4.12891613 C10.7255079,5.24483147 11.0694012,6.92694857 10.4531759,8.38886857 C9.83695062,9.85078857 8.38235159,10.8036863 6.76941176,10.8020769 C5.71688534,10.8048651 4.70637438,10.3972976 3.96034896,9.66910302 C3.21432354,8.94090843 2.7939459,7.95178708 2.79176471,6.9195 L2.79176471,6.9195 Z M0,7.40411538 C0,9.02838462 2.01764706,12.4513846 2.01764706,12.4513846 L6.76941176,20.2165385 L11.2494118,12.4513846 C11.2494118,12.4513846 13.5388235,9.00415385 13.5388235,7.40411538 C13.5385961,3.73736948 10.5076429,0.765065423 6.769,0.765288462 C3.03035712,0.7655115 -0.000227411367,3.73817717 9.36244546e-14,7.40492308 L0,7.40411538 Z" id="map_pin"></path>
                            </g>
                        </g>
                    </g>
                </g>
            </g>
        </g>
    </g>
</svg>