<?xml version="1.0" encoding="UTF-8" standalone="no"?>
<svg width="37px" height="27px" viewBox="0 0 37 27" version="1.1" xmlns="http://www.w3.org/2000/svg" xmlns:xlink="http://www.w3.org/1999/xlink">
    <!-- Generator: sketchtool 3.8.3 (29802) - http://www.bohemiancoding.com/sketch -->
    <title>EDB2DDAB-4673-4DCA-B595-C827647D1324</title>
    <desc>Created with sketchtool.</desc>
    <defs></defs>
    <g id="Desktop" stroke="none" stroke-width="1" fill="none" fill-rule="evenodd">
        <g id="Landing" transform="translate(-545.000000, -447.000000)" stroke="#FFFFFF">
            <g id="banner" transform="translate(0.000000, 81.000000)">
                <g id="cir1-copy" transform="translate(523.000000, 339.000000)">
                    <g id="Group-10" transform="translate(22.000000, 27.000000)">
                        <g id="Page-1">
                            <path d="M2.962,20.046 L2.962,22.358 C2.962,24.064 4.342,25.447 6.05,25.447 L30.347,25.447 C32.054,25.447 33.439,24.064 33.439,22.358 L33.439,20.046" id="Stroke-1" stroke-width="1.4" stroke-linecap="round" stroke-linejoin="round"></path>
                            <path d="M33.464,10.95 C33.464,5.892 30.081,0.7 18.198,0.7 C6.203,0.7 2.933,5.892 2.933,10.95" id="Stroke-3" stroke-width="1.4" stroke-linecap="round" stroke-linejoin="round"></path>
                            <path d="M11.283,7.824 C11.884,7.824 12.372,8.312 12.372,8.913 C12.372,9.514 11.884,10.002 11.283,10.002 C10.682,10.002 10.194,9.514 10.194,8.913 C10.194,8.312 10.682,7.824 11.283,7.824 L11.283,7.824 Z" id="Stroke-5"></path>
                            <path d="M15.616,3.428 C16.216,3.428 16.702,3.914 16.702,4.514 C16.702,5.114 16.216,5.6 15.616,5.6 C15.016,5.6 14.53,5.114 14.53,4.514 C14.53,3.914 15.016,3.428 15.616,3.428 L15.616,3.428 Z" id="Stroke-7"></path>
                            <path d="M19.283,8.913 C19.283,9.515 18.802,10 18.198,10 C17.599,10 17.112,9.515 17.112,8.913 C17.112,8.313 17.599,7.831 18.198,7.831 C18.802,7.831 19.283,8.313 19.283,8.913 L19.283,8.913 Z" id="Stroke-9"></path>
                            <path d="M22.503,4.6 C22.503,5.2 22.019,5.685 21.414,5.685 C20.815,5.685 20.329,5.2 20.329,4.6 C20.329,4 20.815,3.51 21.414,3.51 C22.018,3.511 22.503,4.001 22.503,4.6 L22.503,4.6 Z" id="Stroke-11"></path>
                            <path d="M25.115,7.825 C25.716,7.825 26.203,8.312 26.203,8.913 C26.203,9.514 25.716,10.001 25.115,10.001 C24.514,10.001 24.027,9.514 24.027,8.913 C24.027,8.312 24.514,7.825 25.115,7.825 L25.115,7.825 Z" id="Stroke-13"></path>
                            <path d="M2.154,17.723 L34.246,17.723" id="Stroke-15" stroke-width="1.4" stroke-linecap="round" stroke-linejoin="round"></path>
                            <path d="M0.7,13.043 C2.447,13.043 2.447,14.443 4.195,14.443 C5.943,14.443 5.943,13.043 7.692,13.043 C9.443,13.043 9.443,14.443 11.192,14.443 C12.943,14.443 12.943,13.043 14.691,13.043 C16.439,13.043 16.439,14.443 18.187,14.443 C19.936,14.443 19.936,13.043 21.686,13.043 C23.437,13.043 23.437,14.443 25.186,14.443 C26.937,14.443 26.937,13.043 28.687,13.043 C30.44,13.043 30.44,14.443 32.192,14.443 C33.945,14.443 33.945,13.043 35.7,13.043" id="Stroke-17" stroke-width="1.4" stroke-linecap="round" stroke-linejoin="round"></path>
                        </g>
                    </g>
                </g>
            </g>
        </g>
    </g>
</svg>