<?xml version="1.0" encoding="UTF-8" standalone="no"?>
<svg width="30px" height="32px" viewBox="0 0 30 32" version="1.1" xmlns="http://www.w3.org/2000/svg" xmlns:xlink="http://www.w3.org/1999/xlink">
    <!-- Generator: sketchtool 3.8.3 (29802) - http://www.bohemiancoding.com/sketch -->
    <title>61F13D96-A72A-4E71-80D4-017BDBAC0B30</title>
    <desc>Created with sketchtool.</desc>
    <defs></defs>
    <g id="Desktop" stroke="none" stroke-width="1" fill="none" fill-rule="evenodd" stroke-linecap="round" stroke-linejoin="round">
        <g id="Landing" transform="translate(-722.000000, -445.000000)" stroke-width="1.4" stroke="#FFFFFF">
            <g id="banner" transform="translate(0.000000, 81.000000)">
                <g id="cir1-copy-2" transform="translate(696.000000, 339.000000)">
                    <g id="Group-11" transform="translate(26.000000, 25.000000)">
                        <g id="Page-1">
                            <path d="M6.878,15.536 C4.248,18.123 6.733,23.407 8.772,24.391" id="Stroke-1"></path>
                            <path d="M8.174,7.061 C3.733,9.184 0.708,13.337 0.7,18.106 C0.69,25.039 7.06,30.688 14.9,30.701 C22.741,30.714 29.128,25.081 29.138,18.148 C29.146,13.378 26.132,9.217 21.697,7.082" id="Stroke-3"></path>
                            <path d="M10.303,5.599 L9.701,5.92 C6.978,7.379 6.485,9.563 6.441,10.795 C8.664,8.551 10.937,8.143 11.043,8.126 L11.763,8.011 L11.504,8.691 C11.07,9.844 10.909,10.85 10.909,11.705 C10.909,12.909 11.225,13.806 11.532,14.398 C12.191,11.229 14.543,9.14 14.655,9.045 L14.931,8.802 L15.208,9.045 C15.318,9.142 17.65,11.23 18.302,14.398 C18.609,13.803 18.923,12.908 18.923,11.705 C18.923,10.851 18.765,9.845 18.329,8.691 L18.071,8.011 L18.792,8.126 C18.895,8.143 21.171,8.551 23.394,10.795 C23.349,9.563 22.855,7.379 20.134,5.92 L19.53,5.599 L20.089,5.204 C20.155,5.156 21.565,4.186 24.284,3.952 C22.856,3.07 20.012,1.887 17.04,3.979 L16.634,4.263 C16.634,4.263 15.4,1.705 14.917,0.7 C14.433,1.705 13.199,4.263 13.199,4.263 L12.791,3.979 C9.82,1.887 6.977,3.07 5.55,3.952 C8.269,4.185 9.678,5.156 9.744,5.204 L10.303,5.599 L10.303,5.599 Z" id="Stroke-5"></path>
                        </g>
                    </g>
                </g>
            </g>
        </g>
    </g>
</svg>