<?xml version="1.0" encoding="UTF-8" standalone="no"?>
<svg width="35px" height="27px" viewBox="0 0 35 27" version="1.1" xmlns="http://www.w3.org/2000/svg" xmlns:xlink="http://www.w3.org/1999/xlink">
    <!-- Generator: sketchtool 3.8.3 (29802) - http://www.bohemiancoding.com/sketch -->
    <title>AD9B887D-1C89-4996-80D8-2844BCCF04FF</title>
    <desc>Created with sketchtool.</desc>
    <defs></defs>
    <g id="Desktop" stroke="none" stroke-width="1" fill="none" fill-rule="evenodd" stroke-linecap="round" stroke-linejoin="round">
        <g id="Landing" transform="translate(-372.000000, -447.000000)" stroke-width="1.4" stroke="#FFFFFF">
            <g id="banner" transform="translate(0.000000, 81.000000)">
                <g id="cir1" transform="translate(347.000000, 339.000000)">
                    <g id="Group-9" transform="translate(25.000000, 27.000000)">
                        <g id="Page-1">
                            <path d="M1.1455,15.4733 C0.7275,14.2093 0.6555,12.9443 0.7215,11.6583 C0.7545,11.0103 0.7535,10.3733 0.8995,9.7273 C1.2215,8.3083 1.6575,7.0603 2.3845,5.8153 C2.9345,4.8793 3.5555,4.0603 4.4055,3.3553 C5.0955,2.7853 5.8325,2.3533 6.6295,2.0093 C9.0065,0.9893 10.5455,0.8333 13.0165,1.5743 C12.4155,2.4283 11.9285,3.4983 10.9635,3.9093 C10.0845,4.2823 10.2685,4.1053 9.4205,4.4483 C8.6805,4.7463 8.1045,5.0343 7.5415,5.6343 C6.7155,6.5123 6.2925,7.5773 5.9695,8.7053 C5.6295,9.8853 5.6855,11.0713 5.9695,12.2743 C6.0905,12.8013 6.3265,13.2783 6.6105,13.7313 C8.5415,16.8203 12.0615,18.0783 15.4985,18.1433 C19.3605,18.2163 23.6705,17.7093 26.3215,14.5143 C28.5475,11.8303 27.9425,7.8603 25.5365,5.4963 C25.2835,5.2463 25.0265,4.9633 24.7105,4.7953 C24.3015,4.5783 23.9055,4.3553 23.4655,4.2213 C21.8725,3.7293 20.1985,3.7683 18.6415,4.3303 C17.2335,4.8413 16.0675,5.8523 15.4655,7.2243 C15.2465,7.7193 15.3855,8.3253 15.1965,8.7773 C14.8195,9.6923 13.8035,10.1513 13.0495,10.8023 C11.3845,7.5133 13.1635,3.5903 16.3575,2.0373 C21.2665,-0.3517 27.7665,0.3563 31.2575,5.0073 C34.4115,9.2093 34.3125,14.5763 31.2815,18.8933 C28.1735,23.3153 23.3365,25.3453 18.2905,25.6553 C11.2745,26.0873 3.7945,23.4763 1.1455,15.4733 L1.1455,15.4733 Z" id="Stroke-1"></path>
                            <path d="M20.2607,11.153 C21.1717,9.604 21.1317,7.798 20.2587,6.249 C20.2337,6.207 20.1407,6.074 20.0127,6.121 C19.1107,6.446 18.3857,7.109 17.9807,7.912 C17.7617,8.348 18.0707,8.954 17.8407,9.459 C17.5447,10.102 17.2567,10.714 16.7257,11.19 C15.2767,12.492 13.9637,13.722 12.2547,14.773 C12.0517,14.897 11.6137,15.102 11.7897,15.282 C12.4667,15.965 13.4867,16.198 14.3897,16.262 C15.1077,16.31 15.7017,15.589 16.3607,15.105 C17.9317,13.949 19.2807,12.822 20.2607,11.153 L20.2607,11.153 Z" id="Stroke-3"></path>
                        </g>
                    </g>
                </g>
            </g>
        </g>
    </g>
</svg>